<mxfile host="app.diagrams.net" modified="2023-12-18T08:20:36.851Z" agent="Mozilla/5.0 (Macintosh; Intel Mac OS X 10.15; rv:121.0) Gecko/20100101 Firefox/121.0" etag="G-yFR3fEKTb8Q5rCBFsr" version="22.1.11" type="device">
  <diagram name="Страница — 1" id="vB9D-kexn2597TeA3eKm">
    <mxGraphModel dx="1194" dy="792" grid="1" gridSize="10" guides="1" tooltips="1" connect="1" arrows="1" fold="1" page="1" pageScale="1" pageWidth="827" pageHeight="1169" math="0" shadow="0">
      <root>
        <mxCell id="0" />
        <mxCell id="1" parent="0" />
        <mxCell id="KP4cSD94HJasYHTmMIxv-4" value="" style="edgeStyle=orthogonalEdgeStyle;rounded=0;orthogonalLoop=1;jettySize=auto;html=1;" edge="1" parent="1" source="KP4cSD94HJasYHTmMIxv-1" target="KP4cSD94HJasYHTmMIxv-3">
          <mxGeometry relative="1" as="geometry" />
        </mxCell>
        <mxCell id="KP4cSD94HJasYHTmMIxv-1" value="Начало" style="strokeWidth=2;html=1;shape=mxgraph.flowchart.terminator;whiteSpace=wrap;" vertex="1" parent="1">
          <mxGeometry x="230" y="70" width="100" height="60" as="geometry" />
        </mxCell>
        <mxCell id="KP4cSD94HJasYHTmMIxv-2" value="Конец" style="strokeWidth=2;html=1;shape=mxgraph.flowchart.terminator;whiteSpace=wrap;" vertex="1" parent="1">
          <mxGeometry x="230" y="500" width="100" height="60" as="geometry" />
        </mxCell>
        <mxCell id="KP4cSD94HJasYHTmMIxv-6" value="" style="edgeStyle=orthogonalEdgeStyle;rounded=0;orthogonalLoop=1;jettySize=auto;html=1;" edge="1" parent="1" source="KP4cSD94HJasYHTmMIxv-3" target="KP4cSD94HJasYHTmMIxv-5">
          <mxGeometry relative="1" as="geometry" />
        </mxCell>
        <mxCell id="KP4cSD94HJasYHTmMIxv-3" value="Создание указателя temp на элемент списка workshopList" style="whiteSpace=wrap;html=1;strokeWidth=2;" vertex="1" parent="1">
          <mxGeometry x="220" y="150" width="120" height="60" as="geometry" />
        </mxCell>
        <mxCell id="KP4cSD94HJasYHTmMIxv-8" value="" style="edgeStyle=orthogonalEdgeStyle;rounded=0;orthogonalLoop=1;jettySize=auto;html=1;" edge="1" parent="1" source="KP4cSD94HJasYHTmMIxv-5" target="KP4cSD94HJasYHTmMIxv-7">
          <mxGeometry relative="1" as="geometry" />
        </mxCell>
        <mxCell id="KP4cSD94HJasYHTmMIxv-5" value="Цикл А: пока указатель на начало списка не дойдет до Null" style="strokeWidth=2;html=1;shape=mxgraph.flowchart.loop_limit;whiteSpace=wrap;" vertex="1" parent="1">
          <mxGeometry x="185" y="240" width="190" height="60" as="geometry" />
        </mxCell>
        <mxCell id="KP4cSD94HJasYHTmMIxv-11" value="" style="edgeStyle=orthogonalEdgeStyle;rounded=0;orthogonalLoop=1;jettySize=auto;html=1;" edge="1" parent="1" source="KP4cSD94HJasYHTmMIxv-7" target="KP4cSD94HJasYHTmMIxv-10">
          <mxGeometry relative="1" as="geometry" />
        </mxCell>
        <mxCell id="KP4cSD94HJasYHTmMIxv-7" value="Освобождение памяти каждого элемента списка через temp" style="whiteSpace=wrap;html=1;strokeWidth=2;" vertex="1" parent="1">
          <mxGeometry x="220" y="330" width="120" height="60" as="geometry" />
        </mxCell>
        <mxCell id="KP4cSD94HJasYHTmMIxv-12" value="" style="edgeStyle=orthogonalEdgeStyle;rounded=0;orthogonalLoop=1;jettySize=auto;html=1;" edge="1" parent="1" source="KP4cSD94HJasYHTmMIxv-10" target="KP4cSD94HJasYHTmMIxv-2">
          <mxGeometry relative="1" as="geometry" />
        </mxCell>
        <mxCell id="KP4cSD94HJasYHTmMIxv-10" value="Цикл А" style="strokeWidth=2;html=1;shape=mxgraph.flowchart.loop_limit;whiteSpace=wrap;direction=west;" vertex="1" parent="1">
          <mxGeometry x="200" y="420" width="160" height="50" as="geometry" />
        </mxCell>
      </root>
    </mxGraphModel>
  </diagram>
</mxfile>
